<?xml version="1.0" encoding="UTF-8"?>
<svg xmlns="http://www.w3.org/2000/svg" viewBox="52.61 24.35 234.77 82.53">
<path d="M 109.68 59.29 L 109.68 46.63 L 84.94 46.63 C 82.32 46.63 76.04 50.19 76.04 58.81 C 76.04 67.43 86.44 74.55 86.44 79.70 C 86.44 84.86 76.66 87.13 72.95 89.07 L 91.60 89.07 C 96.72 86.63 98.40 81.52 98.40 78.15 C 98.40 74.61 94.92 69.61 92.00 65.11 C 89.30 60.97 88.81 59.28 92.34 59.28 C 100.30 59.28 109.68 59.29 109.68 59.29 Z  M 120.13 50.90 L 120.13 50.12 L 120.13 50.90 M 88.86 101.32 C 97.19 97.27 99.95 88.85 99.95 83.32 C 100.01 77.70 94.12 69.04 89.07 61.33 C 86.72 57.67 85.26 55.18 85.22 53.15 C 85.18 52.15 85.74 51.19 86.66 50.73 C 87.57 50.26 88.74 50.10 90.30 50.09 C 102.21 50.09 115.97 50.11 119.35 50.12 L 119.35 29.90 L 77.59 29.90 C 75.66 29.88 71.92 31.32 68.81 34.58 C 65.68 37.83 63.07 42.84 63.07 50.07 C 63.05 57.15 67.39 63.80 71.85 69.80 C 76.28 75.83 80.88 81.05 80.95 85.99 C 80.90 90.99 76.35 94.27 71.31 96.82 C 67.71 98.61 63.72 100.06 60.61 101.32 L 88.86 101.32 M 56.97 102.88 L 56.61 101.41 C 59.92 99.69 65.68 97.90 70.62 95.42 C 75.58 92.95 79.44 89.85 79.39 85.99 C 79.46 82.08 75.12 76.75 70.60 70.73 C 66.13 64.68 61.53 57.80 61.51 50.07 C 61.55 34.82 72.56 28.38 77.59 28.35 L 120.13 28.35 L 120.90 28.35 L 120.90 50.90 L 120.90 51.68 L 120.12 51.68 C 120.09 51.68 103.99 51.65 90.30 51.65 C 88.86 51.65 87.88 51.83 87.39 52.11 C 86.91 52.40 86.80 52.58 86.77 53.15 C 86.73 54.35 88.03 56.91 90.37 60.48 C 95.37 68.23 101.45 76.77 101.51 83.32 C 101.51 89.34 98.51 98.42 89.37 102.80 L 89.21 102.88 L 56.97 102.88 Z  M 101.96 87.57 C 99.78 86.10 97.88 83.73 97.85 80.54 L 97.85 60.46 L 106.09 60.46 L 106.09 79.58 C 106.09 81.72 108.04 82.67 110.04 82.67 C 111.95 82.67 113.60 81.64 113.60 79.13 C 113.60 76.61 113.60 60.40 113.61 60.40 L 121.85 60.40 L 121.85 80.86 C 121.90 83.82 120.09 86.52 117.84 87.87 C 115.59 89.29 112.94 89.86 110.04 89.87 C 106.96 89.87 104.19 89.05 101.96 87.57 Z  M 168.30 60.33 H 177.32 V 89.44 H 168.30 Z Z  M 168.30 52.36 H 177.32 V 58.68 H 168.30 Z Z  M 227.99 60.33 H 237.02 V 89.41 H 227.99 Z Z  M 227.99 52.36 H 237.02 V 58.68 H 227.99 Z Z  M 209.08 74.74 C 209.09 77.93 211.68 80.52 214.87 80.52 C 218.05 80.52 220.64 77.93 220.65 74.74 C 220.64 71.55 218.05 68.97 214.87 68.96 C 211.68 68.97 209.09 71.55 209.08 74.74 M 200.69 74.74 C 200.69 66.90 207.03 60.56 214.87 60.56 C 222.70 60.56 229.04 66.90 229.05 74.74 C 229.04 82.58 222.70 88.92 214.87 88.92 C 207.03 88.92 200.69 82.58 200.69 74.74 Z  M 177.78 60.48 L 188.23 60.48 L 191.78 70.83 L 194.37 60.48 L 205.41 60.48 L 197.41 89.44 L 187.54 89.44 L 177.78 60.48 Z  M 130.06 75.21 C 130.06 73.04 131.56 70.19 134.78 70.19 C 137.23 70.19 139.71 71.62 141.48 73.47 L 141.48 60.70 C 139.31 60.12 137.00 59.97 134.95 59.97 C 131.05 59.97 127.73 61.25 124.92 63.75 C 122.11 66.22 120.23 70.08 120.26 74.40 C 120.16 80.08 122.90 84.55 126.10 86.71 C 129.30 88.92 132.27 89.37 134.27 89.41 L 145.86 89.41 L 145.86 80.10 L 135.19 80.10 C 131.49 80.10 130.06 77.07 130.06 75.21 Z  M 151.42 68.68 L 157.06 68.68 C 157.87 68.68 158.67 69.36 158.67 70.65 C 158.67 71.55 158.23 72.52 156.80 72.52 C 156.08 72.52 151.42 72.51 151.42 72.51 L 151.42 68.68 M 168.25 89.44 L 161.02 80.23 C 163.82 78.71 166.52 75.69 166.52 71.20 C 166.52 66.13 163.58 60.46 158.45 60.46 L 142.60 60.46 L 142.60 89.44 L 152.32 89.44 L 152.32 81.55 L 158.52 89.44 L 168.25 89.44 Z  M 247.53 68.68 L 253.17 68.68 C 253.98 68.68 254.78 69.36 254.78 70.65 C 254.78 71.55 254.34 72.52 252.91 72.52 C 252.19 72.52 247.53 72.51 247.53 72.51 L 247.53 68.68 M 264.36 89.44 L 257.13 80.23 C 259.93 78.71 262.63 75.69 262.63 71.20 C 262.63 66.13 259.69 60.46 254.56 60.46 L 238.71 60.46 L 238.71 89.44 L 248.43 89.44 L 248.43 81.55 L 254.63 89.44 L 264.36 89.44 Z  M 283.38 81.21 L 269.43 81.21 L 269.43 78.45 L 283.38 78.45 L 283.38 70.77 L 269.43 70.77 L 269.43 68.71 L 283.38 68.71 L 283.38 60.47 L 262.60 60.47 L 262.60 89.45 L 283.38 89.45 L 283.38 81.21 Z " fill="#72bcd5" fill-rule="evenodd"/>
</svg>