<?xml version="1.0" encoding="UTF-8"?>
<svg id="a" data-name="Слой 1" xmlns="http://www.w3.org/2000/svg" width="500.01" height="349.13" viewBox="0 0 500.01 349.13">
  <defs>
    <style>
      .b {
        fill: #fff;
      }

      .c {
        fill: #007e2d;
      }
    </style>
  </defs>
  <rect width="500" height="173.23"/>
  <path class="b" d="M421.27,76.31v-23.29l-61.95.04v6.08c-5.27-4.75-13.94-7.97-27.07-7.97-24.96,0-33.92,9.8-33.92,24.72v21.9c0,7.4-1.44,8.81-3.81,8.86-2.43-.03-3.81-1.78-3.81-8.86v-44.78h-30.14c-10.78,0-18.84,5.07-24.51,20.19l-9.82,28.69c-.93,2.56-2.03,2.96-3.2,2.98-1.35,0-2.65-.84-3.54-3.68l-3.31-7.07c8.2-3.84,11.04-10.31,11.04-17.46v-2.22c0-11.7-6.74-21.42-34.25-21.42h-114.22v23.28h18.71v-4.88c0-1.56,1.27-2.8,2.81-2.8h7.51v42.94c-.01,7.97,6.44,14.41,14.39,14.41h14.23v-16.12l-.18.02c-2.84,0-5.15-2.32-5.15-5.17v-36.08h7.54c1.56,0,2.8,1.24,2.8,2.79v4.88h18.14v28.44c0,2.84-2.29,5.15-5.14,5.15v16.06h28.65v-27.79l2.41.02c3.81,0,7.13,1.81,8.86,4.95l11.87,22.82h23.9c10.53,0,12.8-2.32,16.24-10.95l4.19-11.76h16.84l-.03,22.72h153.95v-23.82h-18.89l.03,4.89c0,1.53-1.27,2.78-2.81,2.78l-16.82-.06v-13.22h14.13v-15.42h-14.13v-12.53h16.82c1.54,0,2.81,1.27,2.81,2.81l-.03,4.89h18.89v.02ZM202.97,75.56c0,3.77-1.93,6.83-10.79,6.83h-9.13v-13.79h9.09c8.88,0,10.83,3.17,10.83,6.94v.02ZM267.29,87.79h-12.22l2.21-5.68c3.55-8.54,6.05-10.7,10.02-10.7v16.38h-.01ZM342.67,98.36v.59c0,8.9-4.7,10.81-10.47,10.81h-.01c-5.78,0-10.47-1.9-10.47-10.81v-19.82c0-8.88,4.69-10.79,10.47-10.79h.01c5.78,0,10.47,1.91,10.47,10.79l-.03.47h17.07l.38,18.74-17.41.02h0Z"/>
  <rect class="c" x=".01" y="172.66" width="500" height="176.47"/>
  <path class="b" d="M142.94,298.7h-17.21l-3.96-14.34h-24.6l-3.96,14.34h-17.21l22.38-73.45h22.07l22.5,73.45ZM100.92,270.57h16.87l-8.39-30.77-8.49,30.77Z"/>
  <polygon class="b" points="149.55 298.7 149.55 225.24 196.21 225.24 196.21 239.91 166.1 239.91 166.1 255.58 193.89 255.58 193.89 270.24 166.1 270.24 166.1 298.7 149.55 298.7"/>
  <path class="b" d="M231.24,275.87h-9.71v22.83h-16.55v-73.46h30.56c4.48,0,8.27.45,11.35,1.33,3.09.87,5.59,2.21,7.5,3.96,1.99,1.69,3.43,3.86,4.3,6.51.89,2.58,1.33,5.59,1.33,9.05v9.05c0,4.62-.85,8.49-2.54,11.58-1.69,3.01-4.41,5.3-8.16,6.84l17.76,25.15h-19.63l-16.21-22.83ZM243.48,247.63c0-2.8-.63-4.78-1.87-5.96-1.25-1.18-3.57-1.76-6.95-1.76h-13.12v21.61h13.12c3.53,0,5.88-.63,7.05-1.87,1.19-1.33,1.77-3.38,1.77-6.18v-5.84Z"/>
  <rect class="b" x="274.76" y="225.24" width="16.55" height="73.45"/>
  <path class="b" d="M319.43,274.65c0,1.62.14,3.06.44,4.3.3,1.25.82,2.32,1.54,3.2.82.88,1.88,1.55,3.2,1.98,1.32.45,3.01.66,5.07.66,2.64,0,5.67-.15,9.05-.44,3.38-.29,6.68-.74,9.92-1.32l2.32,14.44c-3.67.81-7.2,1.4-10.58,1.77-3.38.36-6.95.55-10.71.55-4.63,0-8.63-.55-12.03-1.66-3.38-1.1-6.17-2.64-8.37-4.64-2.14-1.98-3.75-4.33-4.86-7.05-1.03-2.8-1.54-5.84-1.54-9.16v-30.66c0-3.3.52-6.33,1.54-9.05,1.11-2.79,2.72-5.18,4.86-7.17,2.2-1.98,4.99-3.53,8.37-4.64,3.39-1.1,7.39-1.65,12.03-1.65,3.75,0,7.32.18,10.71.55,3.38.37,6.91.95,10.58,1.76l-2.32,14.46c-3.24-.59-6.54-1.03-9.92-1.32-3.38-.3-6.41-.45-9.05-.45-2.06,0-3.75.22-5.07.66-1.32.45-2.38,1.11-3.2,1.99-.73.87-1.24,1.95-1.54,3.19-.29,1.25-.44,2.69-.44,4.3v25.37Z"/>
  <path class="b" d="M422.36,298.7h-17.21l-3.96-14.34h-24.6l-3.97,14.34h-17.2l22.38-73.45h22.07l22.5,73.45ZM380.34,270.57h16.87l-8.39-30.77-8.49,30.77Z"/>
</svg>