<svg xmlns="http://www.w3.org/2000/svg" viewBox="0 0 814 1000">
  <path d="M788.1 340.9c-5.8 4.5-108.2 62.2-108.2 190.5 0 148.4 130.3 200.9 134.2 202.2-.6 3.2-20.7 71.9-68.7 141.9-42.8 61.6-87.5 123.1-155.5 123.1s-85.5-39.5-164-39.5c-76 0-103.7 40.8-165.9 40.8s-105-42.3-149.3-112.5C60.6 858.6 19.6 730.9 19.6 610c0-197.7 129.2-302.5 256.4-302.5 63.5 0 116.4 41.8 155.9 41.8 37.5 0 96.9-43.4 166.5-43.4zm-209.6-232.1c31.1-37.5 53.4-89.4 53.4-141.3 0-7.1-.6-14.3-1.9-20.1-50.6 1.9-110.8 33.7-147.1 75.8-28.5 32.4-55.1 84.2-55.1 136.8 0 7.8 1.3 15.6 1.9 18.1 3.2.6 8.4 1.3 13.6 1.3 45.4 0 102.5-30.4 135.2-70.6z"/>
</svg>
